<svg version="1.2" xmlns="http://www.w3.org/2000/svg" viewBox="0 0 1601 653" width="1601" height="653">
	<title>Westpac-svg</title>
	<style>
		.s0 { fill: #ed1a3a } 
	</style>
	<g id="Layer">
		<path id="Layer" class="s0" d="m613.5 652.4h-309.6c-57.6 0-108.4-32.4-124.7-93.9l-141.1-489.9c0 0-15.2-59.2-38.1-68.6h292.1c57.6 0 95.4 21 117.6 95.6l157.3 487.8c0 0 24.3 65 46.5 69zm419.9-69l157.3-487.8c22.2-74.6 60-95.6 117.6-95.6h292.1c-23 9.4-38.2 68.6-38.2 68.6l-141 489.9c-16.3 61.5-67.1 93.9-124.8 93.9h-309.6c22.2-4 46.6-69 46.6-69zm-404.4-579.5h343.7v648.5h-343.7z"/>
	</g>
</svg>