<svg viewBox="0 0 800 450" xmlns="http://www.w3.org/2000/svg">
  <defs>
    <linearGradient id="headerGrad" x1="0%" y1="0%" x2="100%" y2="0%">
      <stop offset="0%" style="stop-color:#FFA500;stop-opacity:0.1"/>
      <stop offset="100%" style="stop-color:#FFB833;stop-opacity:0.1"/>
    </linearGradient>
    <linearGradient id="nodeGrad" x1="0%" y1="0%" x2="100%" y2="100%">
      <stop offset="0%" style="stop-color:#FFA500;stop-opacity:1"/>
      <stop offset="100%" style="stop-color:#FFB833;stop-opacity:1"/>
    </linearGradient>
    <filter id="shadow" x="-20%" y="-20%" width="140%" height="140%">
      <feDropShadow dx="0" dy="2" stdDeviation="3" flood-color="#000000" flood-opacity="0.1"/>
    </filter>
  </defs>

  <!-- Background -->
  <rect width="800" height="450" fill="#FAFAF8"/>

  <!-- Title -->
  <text x="400" y="30" text-anchor="middle" font-family="Inter, system-ui, sans-serif" font-size="16" font-weight="600" fill="#121212">CDM Platform Architecture</text>

  <!-- Data Sources Layer -->
  <g transform="translate(40, 60)">
    <rect x="0" y="0" width="720" height="60" rx="12" fill="url(#headerGrad)" stroke="#E5E0D9" stroke-width="1"/>
    <text x="360" y="20" text-anchor="middle" font-family="Inter, system-ui, sans-serif" font-size="11" font-weight="600" fill="#555">DATA SOURCES</text>

    <g transform="translate(30, 30)">
      <rect x="0" y="0" width="100" height="24" rx="6" fill="white" filter="url(#shadow)"/>
      <text x="50" y="16" text-anchor="middle" font-family="Inter, system-ui, sans-serif" font-size="10" fill="#666">FpML</text>
    </g>
    <g transform="translate(150, 30)">
      <rect x="0" y="0" width="100" height="24" rx="6" fill="white" filter="url(#shadow)"/>
      <text x="50" y="16" text-anchor="middle" font-family="Inter, system-ui, sans-serif" font-size="10" fill="#666">CSV/Excel</text>
    </g>
    <g transform="translate(270, 30)">
      <rect x="0" y="0" width="100" height="24" rx="6" fill="white" filter="url(#shadow)"/>
      <text x="50" y="16" text-anchor="middle" font-family="Inter, system-ui, sans-serif" font-size="10" fill="#666">JSON</text>
    </g>
    <g transform="translate(390, 30)">
      <rect x="0" y="0" width="100" height="24" rx="6" fill="white" filter="url(#shadow)"/>
      <text x="50" y="16" text-anchor="middle" font-family="Inter, system-ui, sans-serif" font-size="10" fill="#666">XML</text>
    </g>
    <g transform="translate(510, 30)">
      <rect x="0" y="0" width="100" height="24" rx="6" fill="white" filter="url(#shadow)"/>
      <text x="50" y="16" text-anchor="middle" font-family="Inter, system-ui, sans-serif" font-size="10" fill="#666">APIs</text>
    </g>
    <g transform="translate(630, 30)">
      <rect x="0" y="0" width="70" height="24" rx="6" fill="white" filter="url(#shadow)"/>
      <text x="35" y="16" text-anchor="middle" font-family="Inter, system-ui, sans-serif" font-size="10" fill="#666">...</text>
    </g>
  </g>

  <!-- Arrow down -->
  <path d="M400 130 L400 145 M395 140 L400 145 L405 140" stroke="#A7B0B8" stroke-width="2" fill="none"/>

  <!-- Core Services Layer -->
  <g transform="translate(40, 155)">
    <rect x="0" y="0" width="720" height="140" rx="12" fill="white" stroke="#E5E0D9" stroke-width="1" filter="url(#shadow)"/>
    <text x="360" y="20" text-anchor="middle" font-family="Inter, system-ui, sans-serif" font-size="11" font-weight="600" fill="#555">CORE SERVICES</text>

    <!-- Service boxes -->
    <g transform="translate(20, 35)">
      <rect x="0" y="0" width="160" height="90" rx="8" fill="#FAFAF8" stroke="#E5E0D9"/>
      <rect x="0" y="0" width="160" height="28" rx="8" fill="url(#nodeGrad)"/>
      <text x="80" y="18" text-anchor="middle" font-family="Inter, system-ui, sans-serif" font-size="11" font-weight="600" fill="white">Validation Engine</text>
      <text x="80" y="50" text-anchor="middle" font-family="Inter, system-ui, sans-serif" font-size="9" fill="#666">Schema Validation</text>
      <text x="80" y="64" text-anchor="middle" font-family="Inter, system-ui, sans-serif" font-size="9" fill="#666">Business Rules</text>
      <text x="80" y="78" text-anchor="middle" font-family="Inter, system-ui, sans-serif" font-size="9" fill="#666">CDM Compliance</text>
    </g>

    <g transform="translate(200, 35)">
      <rect x="0" y="0" width="160" height="90" rx="8" fill="#FAFAF8" stroke="#E5E0D9"/>
      <rect x="0" y="0" width="160" height="28" rx="8" fill="url(#nodeGrad)"/>
      <text x="80" y="18" text-anchor="middle" font-family="Inter, system-ui, sans-serif" font-size="11" font-weight="600" fill="white">Transformation</text>
      <text x="80" y="50" text-anchor="middle" font-family="Inter, system-ui, sans-serif" font-size="9" fill="#666">Format Conversion</text>
      <text x="80" y="64" text-anchor="middle" font-family="Inter, system-ui, sans-serif" font-size="9" fill="#666">Semantic Mapping</text>
      <text x="80" y="78" text-anchor="middle" font-family="Inter, system-ui, sans-serif" font-size="9" fill="#666">Batch Processing</text>
    </g>

    <g transform="translate(380, 35)">
      <rect x="0" y="0" width="160" height="90" rx="8" fill="#FAFAF8" stroke="#E5E0D9"/>
      <rect x="0" y="0" width="160" height="28" rx="8" fill="url(#nodeGrad)"/>
      <text x="80" y="18" text-anchor="middle" font-family="Inter, system-ui, sans-serif" font-size="11" font-weight="600" fill="white">AI Analysis</text>
      <text x="80" y="50" text-anchor="middle" font-family="Inter, system-ui, sans-serif" font-size="9" fill="#666">Anomaly Detection</text>
      <text x="80" y="64" text-anchor="middle" font-family="Inter, system-ui, sans-serif" font-size="9" fill="#666">Pattern Recognition</text>
      <text x="80" y="78" text-anchor="middle" font-family="Inter, system-ui, sans-serif" font-size="9" fill="#666">Document Processing</text>
    </g>

    <g transform="translate(560, 35)">
      <rect x="0" y="0" width="140" height="90" rx="8" fill="#FAFAF8" stroke="#E5E0D9"/>
      <rect x="0" y="0" width="140" height="28" rx="8" fill="url(#nodeGrad)"/>
      <text x="70" y="18" text-anchor="middle" font-family="Inter, system-ui, sans-serif" font-size="11" font-weight="600" fill="white">Knowledge Graph</text>
      <text x="70" y="50" text-anchor="middle" font-family="Inter, system-ui, sans-serif" font-size="9" fill="#666">Entity Resolution</text>
      <text x="70" y="64" text-anchor="middle" font-family="Inter, system-ui, sans-serif" font-size="9" fill="#666">Lineage Tracking</text>
      <text x="70" y="78" text-anchor="middle" font-family="Inter, system-ui, sans-serif" font-size="9" fill="#666">Impact Analysis</text>
    </g>
  </g>

  <!-- Arrow down -->
  <path d="M400 305 L400 320 M395 315 L400 320 L405 315" stroke="#A7B0B8" stroke-width="2" fill="none"/>

  <!-- Outputs Layer -->
  <g transform="translate(40, 330)">
    <rect x="0" y="0" width="720" height="100" rx="12" fill="url(#headerGrad)" stroke="#E5E0D9" stroke-width="1"/>
    <text x="360" y="20" text-anchor="middle" font-family="Inter, system-ui, sans-serif" font-size="11" font-weight="600" fill="#555">OUTPUTS</text>

    <!-- Output categories -->
    <g transform="translate(20, 35)">
      <rect x="0" y="0" width="165" height="55" rx="8" fill="white" filter="url(#shadow)"/>
      <text x="82" y="22" text-anchor="middle" font-family="Inter, system-ui, sans-serif" font-size="11" font-weight="600" fill="#121212">Regulatory Reports</text>
      <text x="82" y="40" text-anchor="middle" font-family="Inter, system-ui, sans-serif" font-size="9" fill="#666">CFTC, EMIR, MAS, JFSA</text>
    </g>

    <g transform="translate(205, 35)">
      <rect x="0" y="0" width="165" height="55" rx="8" fill="white" filter="url(#shadow)"/>
      <text x="82" y="22" text-anchor="middle" font-family="Inter, system-ui, sans-serif" font-size="11" font-weight="600" fill="#121212">CDM Objects</text>
      <text x="82" y="40" text-anchor="middle" font-family="Inter, system-ui, sans-serif" font-size="9" fill="#666">Validated, Normalized</text>
    </g>

    <g transform="translate(390, 35)">
      <rect x="0" y="0" width="165" height="55" rx="8" fill="white" filter="url(#shadow)"/>
      <text x="82" y="22" text-anchor="middle" font-family="Inter, system-ui, sans-serif" font-size="11" font-weight="600" fill="#121212">Analytics Ready</text>
      <text x="82" y="40" text-anchor="middle" font-family="Inter, system-ui, sans-serif" font-size="9" fill="#666">Risk, Exposure, P&amp;L</text>
    </g>

    <g transform="translate(575, 35)">
      <rect x="0" y="0" width="125" height="55" rx="8" fill="white" filter="url(#shadow)"/>
      <text x="62" y="22" text-anchor="middle" font-family="Inter, system-ui, sans-serif" font-size="11" font-weight="600" fill="#121212">APIs</text>
      <text x="62" y="40" text-anchor="middle" font-family="Inter, system-ui, sans-serif" font-size="9" fill="#666">REST, GraphQL</text>
    </g>
  </g>

  <!-- FINOS CDM badge -->
  <g transform="translate(690, 10)">
    <rect x="0" y="0" width="80" height="24" rx="12" fill="#121212"/>
    <text x="40" y="16" text-anchor="middle" font-family="Inter, system-ui, sans-serif" font-size="9" font-weight="600" fill="white">FINOS CDM</text>
  </g>
</svg>
